if (_typeface_js && _typeface_js.loadFace) _typeface_js.loadFace({"glyphs":{"0":{"ha":538,"x_min":63,"x_max":475,"o":"m 222 0 q 63 171 63 0 l 63 826 q 222 997 63 997 l 315 997 q 475 826 475 997 l 475 171 q 315 0 475 0 l 222 0 m 249 876 q 196 818 196 876 l 196 179 q 256 121 196 121 l 289 121 q 342 179 342 121 l 342 818 q 282 876 342 876 l 249 876 z "},"1":{"ha":336,"x_min":21,"x_max":267,"o":"m 51 776 l 21 868 q 108 922 72 888 q 165 997 144 957 l 179 997 l 267 950 l 267 0 l 135 0 l 135 801 l 51 776 z "},"2":{"ha":513,"x_min":51,"x_max":440,"o":"m 433 119 l 433 0 l 75 0 l 75 307 q 79 349 75 332 q 94 380 83 365 q 131 421 104 394 l 265 550 q 290 576 281 565 q 302 595 299 588 q 306 611 306 603 q 307 633 307 619 l 307 818 q 250 876 307 876 l 242 876 q 185 818 185 876 l 185 715 l 51 715 l 51 826 q 211 997 51 997 l 281 997 q 440 826 440 997 l 440 588 q 433 539 440 560 q 393 488 425 518 l 246 346 q 214 310 218 319 q 209 290 210 300 q 208 264 208 281 l 208 119 l 433 119 z "},"3":{"ha":518,"x_min":49,"x_max":463,"o":"m 358 513 q 463 386 463 485 l 463 169 q 303 0 463 0 l 213 0 q 53 169 53 0 l 53 233 l 186 233 l 186 179 q 239 121 186 121 l 269 121 q 329 179 329 121 l 329 385 q 251 450 329 450 l 215 450 l 215 563 l 235 563 q 313 628 313 563 l 313 817 q 253 875 313 875 l 235 875 q 182 817 182 875 l 182 715 l 49 715 l 49 826 q 208 997 49 997 l 286 997 q 446 826 446 997 l 446 628 q 358 513 446 533 z "},"4":{"ha":510,"x_min":21,"x_max":489,"o":"m 489 233 l 413 233 l 413 0 l 282 0 l 282 233 l 49 233 l 21 346 l 279 997 l 413 997 l 413 346 l 489 346 l 489 233 m 296 732 l 289 732 l 163 346 l 286 346 l 296 732 z "},"5":{"ha":506,"x_min":56,"x_max":450,"o":"m 56 233 l 189 233 l 189 179 q 242 121 189 121 l 257 121 q 317 179 317 121 l 317 407 q 261 472 317 472 l 60 472 l 60 997 l 436 997 l 436 874 l 185 874 l 185 593 l 290 593 q 450 417 450 593 l 450 176 q 290 0 450 0 l 215 0 q 56 169 56 0 l 56 233 z "},"6":{"ha":535,"x_min":63,"x_max":472,"o":"m 331 715 l 331 804 q 271 876 331 876 l 249 876 q 196 818 196 876 l 196 515 l 279 571 l 319 571 q 472 400 472 571 l 472 168 q 319 0 472 0 l 215 0 q 63 168 63 0 l 63 826 q 215 997 63 997 l 311 997 q 464 826 464 997 l 464 715 l 331 715 m 196 450 l 196 181 q 254 121 196 121 l 279 121 q 339 181 339 121 l 339 378 q 279 450 339 450 l 196 450 z "},"7":{"ha":421,"x_min":14,"x_max":400,"o":"m 90 0 l 263 874 l 14 874 l 14 997 l 363 997 l 400 925 l 222 0 l 90 0 z "},"8":{"ha":532,"x_min":56,"x_max":476,"o":"m 161 508 q 65 629 65 529 l 65 826 q 225 997 65 997 l 307 997 q 467 826 467 997 l 467 628 q 379 507 467 528 q 476 388 476 479 l 476 169 q 317 0 476 0 l 215 0 q 56 169 56 0 l 56 389 q 161 508 56 481 m 249 121 l 283 121 q 343 193 343 121 l 343 379 q 267 450 343 450 q 189 381 189 449 l 189 193 q 249 121 189 121 m 199 803 l 199 638 q 258 565 199 565 l 274 565 q 333 636 333 575 l 333 803 q 274 875 333 875 l 258 875 q 199 803 199 875 z "},"9":{"ha":532,"x_min":63,"x_max":469,"o":"m 204 233 l 204 193 q 264 121 204 121 l 283 121 q 336 179 336 121 l 336 421 l 253 365 l 222 365 q 63 543 63 365 l 63 822 q 222 997 63 997 l 310 997 q 469 822 469 997 l 469 178 q 310 0 469 0 l 231 0 q 71 178 71 0 l 71 233 l 204 233 m 336 486 l 336 817 q 271 876 336 876 l 256 876 q 196 817 196 876 l 196 558 q 256 486 196 486 l 336 486 z "}," ":{"ha":222,"x_min":0,"x_max":0,"o":""},"!":{"ha":271,"x_min":63,"x_max":210,"o":"m 210 997 l 193 269 l 81 269 l 63 997 l 210 997 m 210 169 l 210 0 l 68 0 l 68 169 l 210 169 z "},"\"":{"ha":382,"x_min":25,"x_max":357,"o":"m 225 997 l 357 997 l 340 583 l 242 583 l 225 997 m 25 997 l 157 997 l 140 583 l 42 583 l 25 997 z "},"#":{"ha":646,"x_min":0,"x_max":604,"o":"m 436 997 l 531 997 l 501 760 l 604 760 l 593 665 l 490 665 l 450 339 l 553 339 l 542 244 l 438 244 l 408 0 l 314 0 l 343 244 l 203 244 l 174 0 l 79 0 l 108 244 l 0 244 l 11 339 l 121 339 l 161 665 l 51 665 l 63 760 l 172 760 l 201 997 l 296 997 l 267 760 l 407 760 l 436 997 m 215 339 l 356 339 l 396 665 l 256 665 l 215 339 z "},"$":{"ha":521,"x_min":49,"x_max":451,"o":"m 318 729 l 318 817 q 260 876 318 876 l 239 876 q 182 817 182 876 l 182 647 q 193 610 182 619 q 229 585 204 600 l 356 517 q 415 480 397 493 q 442 448 432 467 q 451 376 451 429 l 451 168 q 299 0 451 4 l 299 -106 l 203 -106 l 203 0 q 49 183 49 3 l 49 233 l 182 233 l 182 179 q 242 121 182 121 l 265 121 q 318 179 318 121 l 318 344 q 307 382 318 372 q 271 407 296 392 l 144 478 q 84 515 103 500 q 57 555 65 531 q 49 618 49 579 l 49 826 q 203 997 49 994 l 203 1103 l 299 1103 l 299 997 q 451 826 451 993 l 451 729 l 318 729 z "},"%":{"ha":860,"x_min":56,"x_max":804,"o":"m 631 997 l 314 0 l 229 0 l 546 997 l 631 997 m 210 464 l 165 464 q 56 568 56 464 l 56 893 q 165 997 56 997 l 210 997 q 319 893 319 997 l 319 568 q 210 464 319 464 m 197 921 l 176 921 q 146 882 146 921 l 146 578 q 176 539 146 539 l 197 539 q 229 578 229 539 l 229 882 q 197 921 229 921 m 694 0 l 650 0 q 540 104 540 0 l 540 429 q 650 533 540 533 l 694 533 q 804 429 804 533 l 804 104 q 694 0 804 0 m 682 457 l 661 457 q 631 418 631 457 l 631 114 q 661 75 631 75 l 682 75 q 714 114 714 75 l 714 418 q 682 457 714 457 z "},"&":{"ha":518,"x_min":56,"x_max":504,"o":"m 161 515 q 72 622 72 536 l 72 826 q 232 997 72 997 l 285 997 q 444 826 444 997 l 444 739 l 319 739 l 319 828 q 258 886 319 886 l 243 886 q 197 828 197 878 l 197 631 q 258 558 197 558 l 504 558 l 504 460 l 444 460 l 444 169 q 283 0 444 0 l 217 0 q 56 169 56 0 l 56 396 q 161 515 56 488 m 319 460 l 260 460 q 181 388 181 460 l 181 169 q 240 111 181 111 l 267 111 q 319 169 319 111 l 319 460 z "},"'":{"ha":165,"x_min":17,"x_max":149,"o":"m 17 997 l 149 997 l 132 583 l 33 583 l 17 997 z "},"(":{"ha":286,"x_min":69,"x_max":286,"o":"m 286 -254 l 222 -254 q 69 -85 69 -254 l 69 826 q 222 997 69 997 l 286 997 l 286 892 l 244 892 q 186 821 186 892 l 186 -79 q 244 -150 186 -150 l 286 -150 l 286 -254 z "},")":{"ha":286,"x_min":0,"x_max":217,"o":"m 0 -254 l 64 -254 q 217 -85 217 -254 l 217 826 q 64 997 217 997 l 0 997 l 0 892 l 42 892 q 100 821 100 892 l 100 -79 q 42 -150 100 -150 l 0 -150 l 0 -254 z "},"*":{"ha":478,"x_min":33,"x_max":444,"o":"m 114 1000 l 211 900 l 222 908 l 233 1051 l 364 1008 l 294 883 l 300 874 l 440 907 l 444 785 l 308 804 l 303 794 l 386 685 l 272 619 l 233 761 l 221 765 l 119 660 l 42 761 l 167 821 l 164 833 l 33 892 l 114 1000 z "},"+":{"ha":529,"x_min":56,"x_max":474,"o":"m 331 417 l 331 261 l 208 261 l 208 417 l 56 417 l 56 533 l 208 533 l 208 694 l 331 694 l 331 533 l 474 533 l 474 417 l 331 417 z "},",":{"ha":232,"x_min":42,"x_max":190,"o":"m 43 -165 l 107 0 l 42 0 l 42 172 l 190 172 l 190 0 l 124 -165 l 43 -165 z "},"-":{"ha":339,"x_min":17,"x_max":322,"o":"m 17 390 l 17 501 l 322 501 l 322 390 l 17 390 z "},".":{"ha":225,"x_min":42,"x_max":183,"o":"m 183 169 l 183 0 l 42 0 l 42 169 l 183 169 z "},"/":{"ha":399,"x_min":0,"x_max":399,"o":"m 399 1067 l 93 -69 l 0 -69 l 304 1067 l 399 1067 z "},":":{"ha":222,"x_min":39,"x_max":181,"o":"m 181 169 l 181 0 l 39 0 l 39 169 l 181 169 m 181 715 l 181 546 l 39 546 l 39 715 l 181 715 z "},";":{"ha":222,"x_min":39,"x_max":206,"o":"m 58 -165 l 122 0 l 57 0 l 57 172 l 206 172 l 206 0 l 139 -165 l 58 -165 m 181 715 l 181 546 l 39 546 l 39 715 l 181 715 z "},"<":{"ha":428,"x_min":17,"x_max":361,"o":"m 361 67 l 361 229 l 140 429 l 361 631 l 361 796 l 17 474 l 17 386 l 361 67 z "},"=":{"ha":514,"x_min":56,"x_max":458,"o":"m 56 533 l 56 647 l 458 647 l 458 533 l 56 533 m 56 308 l 56 422 l 458 422 l 458 308 l 56 308 z "},">":{"ha":428,"x_min":67,"x_max":411,"o":"m 67 64 l 411 386 l 411 475 l 67 793 l 67 631 l 288 431 l 67 229 l 67 64 z "},"?":{"ha":522,"x_min":35,"x_max":467,"o":"m 168 269 l 168 438 q 173 485 168 468 q 185 511 178 501 q 213 536 193 521 l 308 607 q 329 633 325 621 q 333 672 333 644 l 333 815 q 275 876 333 876 l 224 876 q 168 815 168 876 l 168 743 l 35 743 l 35 826 q 194 997 35 997 l 308 997 q 467 826 467 997 l 467 624 q 462 576 467 593 q 447 549 457 560 q 419 525 436 538 l 326 453 q 306 428 310 440 q 301 389 301 417 l 301 269 l 168 269 m 308 169 l 308 0 l 167 0 l 167 169 l 308 169 z "},"@":{"ha":776,"x_min":69,"x_max":707,"o":"m 547 229 l 615 229 l 615 764 q 574 875 615 839 q 444 911 532 911 l 319 911 q 201 866 242 910 q 161 746 161 822 l 161 88 l 707 88 l 707 0 l 69 0 l 69 740 q 138 934 69 869 q 315 997 207 999 l 440 997 q 648 934 589 997 q 707 771 707 871 l 707 147 l 449 147 l 449 389 l 340 389 l 340 147 l 242 147 l 242 717 q 360 843 242 843 l 429 843 q 547 717 547 843 l 547 229 m 449 479 l 449 711 q 406 754 449 754 l 383 754 q 340 711 340 754 l 340 479 l 449 479 z "},"A":{"ha":531,"x_min":56,"x_max":475,"o":"m 189 0 l 56 0 l 56 826 q 215 997 56 997 l 315 997 q 475 826 475 997 l 475 0 l 342 0 l 342 365 l 189 365 l 189 0 m 342 486 l 342 818 q 283 876 342 876 l 247 876 q 189 818 189 876 l 189 486 l 342 486 z "},"B":{"ha":531,"x_min":63,"x_max":482,"o":"m 372 513 q 482 399 482 482 l 482 149 q 331 0 482 0 l 63 0 l 63 997 l 290 997 q 468 817 468 997 l 468 625 q 372 519 468 539 l 372 513 m 196 121 l 296 121 q 349 164 349 121 l 349 385 q 269 456 349 456 l 196 456 l 196 121 m 196 576 l 258 576 q 335 649 335 576 l 335 804 q 275 876 335 876 l 196 876 l 196 576 z "},"C":{"ha":503,"x_min":56,"x_max":461,"o":"m 461 233 l 461 169 q 301 0 461 0 l 215 0 q 56 169 56 0 l 56 828 q 215 997 56 997 l 301 997 q 461 828 461 997 l 461 715 l 328 715 l 328 818 q 268 876 328 876 l 242 876 q 189 818 189 876 l 189 179 q 242 121 189 121 l 275 121 q 328 179 328 121 l 328 233 l 461 233 z "},"D":{"ha":538,"x_min":63,"x_max":482,"o":"m 63 0 l 63 997 l 294 997 q 482 806 482 997 l 482 144 q 322 0 482 0 l 63 0 m 196 121 l 296 121 q 349 165 349 121 l 349 804 q 289 876 349 876 l 196 876 l 196 121 z "},"E":{"ha":426,"x_min":63,"x_max":393,"o":"m 63 0 l 63 997 l 393 997 l 393 876 l 196 876 l 196 574 l 371 574 l 371 453 l 196 453 l 196 121 l 393 121 l 393 0 l 63 0 z "},"F":{"ha":421,"x_min":63,"x_max":393,"o":"m 371 574 l 371 453 l 196 453 l 196 0 l 63 0 l 63 997 l 393 997 l 393 876 l 196 876 l 196 574 l 371 574 z "},"G":{"ha":517,"x_min":56,"x_max":471,"o":"m 268 365 l 268 486 l 471 486 l 471 0 l 210 0 q 56 168 56 0 l 56 826 q 210 997 56 997 l 301 997 q 471 824 471 997 l 471 715 l 338 715 l 338 804 q 281 876 338 876 l 247 876 q 189 804 189 876 l 189 193 q 247 121 189 121 l 338 121 l 338 365 l 268 365 z "},"H":{"ha":556,"x_min":63,"x_max":493,"o":"m 360 0 l 360 453 l 196 453 l 196 0 l 63 0 l 63 997 l 196 997 l 196 574 l 360 574 l 360 997 l 493 997 l 493 0 l 360 0 z "},"I":{"ha":258,"x_min":63,"x_max":196,"o":"m 63 0 l 63 997 l 196 997 l 196 0 l 63 0 z "},"J":{"ha":357,"x_min":14,"x_max":294,"o":"m 14 121 l 101 121 q 161 193 161 121 l 161 997 l 294 997 l 294 168 q 140 0 294 0 l 14 0 l 14 121 z "},"K":{"ha":517,"x_min":63,"x_max":503,"o":"m 196 0 l 63 0 l 63 997 l 196 997 l 196 0 m 503 0 l 369 0 l 203 488 l 203 496 l 342 997 l 464 997 l 324 501 l 503 0 z "},"L":{"ha":393,"x_min":63,"x_max":379,"o":"m 379 0 l 63 0 l 63 997 l 196 997 l 196 121 l 379 121 l 379 0 z "},"M":{"ha":667,"x_min":63,"x_max":604,"o":"m 333 411 l 457 997 l 604 997 l 604 0 l 471 0 l 485 653 l 385 181 l 282 181 l 182 653 l 196 0 l 63 0 l 63 997 l 210 997 l 333 411 z "},"N":{"ha":535,"x_min":63,"x_max":472,"o":"m 339 515 l 339 997 l 472 997 l 472 0 l 339 0 l 339 199 l 196 653 l 196 0 l 63 0 l 63 997 l 196 997 l 339 515 z "},"O":{"ha":558,"x_min":56,"x_max":503,"o":"m 217 0 q 56 169 56 0 l 56 826 q 215 997 56 997 l 343 997 q 503 826 503 997 l 503 169 q 342 0 503 0 l 217 0 m 249 121 l 317 121 q 369 179 369 121 l 369 818 q 310 876 369 876 l 247 876 q 189 818 189 876 l 189 179 q 249 121 189 121 z "},"P":{"ha":510,"x_min":63,"x_max":467,"o":"m 63 997 l 306 997 q 467 826 467 997 l 467 531 q 307 361 467 361 l 196 361 l 196 0 l 63 0 l 63 997 m 196 482 l 281 482 q 333 540 333 482 l 333 818 q 274 876 333 876 l 196 876 l 196 482 z "},"Q":{"ha":579,"x_min":56,"x_max":579,"o":"m 579 0 l 217 0 q 56 168 56 0 l 56 826 q 215 997 56 997 l 343 997 q 503 826 503 997 l 503 121 l 579 121 l 579 0 m 369 121 l 369 818 q 310 876 369 876 l 247 876 q 189 818 189 876 l 189 179 q 249 121 189 121 l 369 121 z "},"R":{"ha":525,"x_min":63,"x_max":490,"o":"m 63 997 l 324 997 q 476 826 476 997 l 476 581 q 397 415 476 450 l 490 0 l 364 0 l 276 403 l 196 403 l 196 0 l 63 0 l 63 997 m 196 517 l 283 517 q 343 589 343 517 l 343 804 q 283 876 343 876 l 196 876 l 196 517 z "},"S":{"ha":500,"x_min":49,"x_max":451,"o":"m 318 729 l 318 817 q 260 876 318 876 l 239 876 q 182 817 182 876 l 182 651 q 193 614 182 624 q 229 589 204 604 l 356 521 q 415 484 397 497 q 442 452 432 471 q 451 381 451 433 l 451 168 q 290 0 451 0 l 208 0 q 49 183 49 0 l 49 233 l 182 233 l 182 179 q 242 121 182 121 l 265 121 q 318 179 318 121 l 318 349 q 307 386 318 376 q 271 411 296 396 l 144 482 q 84 519 103 504 q 57 559 65 535 q 49 622 49 583 l 49 826 q 208 997 49 997 l 292 997 q 451 826 451 997 l 451 729 l 318 729 z "},"T":{"ha":417,"x_min":14,"x_max":403,"o":"m 275 876 l 275 0 l 142 0 l 142 876 l 14 876 l 14 997 l 403 997 l 403 876 l 275 876 z "},"U":{"ha":558,"x_min":63,"x_max":496,"o":"m 496 997 l 496 189 q 335 0 496 0 l 222 0 q 63 190 63 0 l 63 997 l 196 997 l 196 186 q 254 121 196 121 l 308 121 q 363 186 363 121 l 363 997 l 496 997 z "},"V":{"ha":508,"x_min":14,"x_max":494,"o":"m 494 997 l 333 0 l 175 0 l 14 997 l 146 997 l 254 236 l 363 997 l 494 997 z "},"W":{"ha":774,"x_min":14,"x_max":760,"o":"m 760 997 l 613 0 l 468 0 l 386 578 l 306 0 l 161 0 l 14 997 l 146 997 l 240 250 l 335 997 l 439 997 l 533 250 l 628 997 l 760 997 z "},"X":{"ha":463,"x_min":19,"x_max":443,"o":"m 440 0 l 311 0 l 236 379 l 233 379 l 143 0 l 19 0 l 146 504 l 28 997 l 158 997 l 233 629 l 236 629 l 319 997 l 443 997 l 324 504 l 440 0 z "},"Y":{"ha":486,"x_min":14,"x_max":472,"o":"m 311 0 l 178 0 l 178 367 l 14 997 l 146 997 l 246 564 l 250 564 l 340 997 l 472 997 l 311 367 l 311 0 z "},"Z":{"ha":407,"x_min":14,"x_max":393,"o":"m 168 121 l 393 121 l 393 0 l 24 0 l 14 47 l 224 875 l 36 875 l 36 997 l 338 997 l 365 940 l 168 121 z "},"[":{"ha":285,"x_min":69,"x_max":285,"o":"m 69 -254 l 69 997 l 285 997 l 285 899 l 185 899 l 185 -156 l 285 -156 l 285 -254 l 69 -254 z "},"\\":{"ha":399,"x_min":0,"x_max":399,"o":"m 94 1067 l 399 -69 l 306 -69 l 0 1067 l 94 1067 z "},"]":{"ha":285,"x_min":0,"x_max":215,"o":"m 0 -254 l 0 -156 l 100 -156 l 100 899 l 0 899 l 0 997 l 215 997 l 215 -254 l 0 -254 z "},"_":{"ha":382,"x_min":0,"x_max":382,"o":"m 0 -99 l 0 0 l 382 0 l 382 -99 l 0 -99 z "},"`":{"ha":211,"x_min":11,"x_max":197,"o":"m 11 944 l 133 944 l 197 781 l 103 781 l 11 944 z "},"a":{"ha":531,"x_min":56,"x_max":475,"o":"m 189 0 l 56 0 l 56 826 q 215 997 56 997 l 315 997 q 475 826 475 997 l 475 0 l 342 0 l 342 365 l 189 365 l 189 0 m 342 486 l 342 818 q 283 876 342 876 l 247 876 q 189 818 189 876 l 189 486 l 342 486 z "},"b":{"ha":531,"x_min":63,"x_max":482,"o":"m 372 513 q 482 399 482 482 l 482 149 q 331 0 482 0 l 63 0 l 63 997 l 290 997 q 468 817 468 997 l 468 625 q 372 519 468 539 l 372 513 m 196 121 l 296 121 q 349 164 349 121 l 349 385 q 269 456 349 456 l 196 456 l 196 121 m 196 576 l 258 576 q 335 649 335 576 l 335 804 q 275 876 335 876 l 196 876 l 196 576 z "},"c":{"ha":503,"x_min":56,"x_max":461,"o":"m 461 233 l 461 169 q 301 0 461 0 l 215 0 q 56 169 56 0 l 56 828 q 215 997 56 997 l 301 997 q 461 828 461 997 l 461 715 l 328 715 l 328 818 q 268 876 328 876 l 242 876 q 189 818 189 876 l 189 179 q 242 121 189 121 l 275 121 q 328 179 328 121 l 328 233 l 461 233 z "},"d":{"ha":538,"x_min":63,"x_max":482,"o":"m 63 0 l 63 997 l 294 997 q 482 806 482 997 l 482 144 q 322 0 482 0 l 63 0 m 196 121 l 296 121 q 349 165 349 121 l 349 804 q 289 876 349 876 l 196 876 l 196 121 z "},"e":{"ha":426,"x_min":63,"x_max":393,"o":"m 63 0 l 63 997 l 393 997 l 393 876 l 196 876 l 196 574 l 371 574 l 371 453 l 196 453 l 196 121 l 393 121 l 393 0 l 63 0 z "},"f":{"ha":421,"x_min":63,"x_max":393,"o":"m 371 574 l 371 453 l 196 453 l 196 0 l 63 0 l 63 997 l 393 997 l 393 876 l 196 876 l 196 574 l 371 574 z "},"g":{"ha":517,"x_min":56,"x_max":471,"o":"m 268 365 l 268 486 l 471 486 l 471 0 l 210 0 q 56 168 56 0 l 56 826 q 210 997 56 997 l 301 997 q 471 824 471 997 l 471 715 l 338 715 l 338 804 q 281 876 338 876 l 247 876 q 189 804 189 876 l 189 193 q 247 121 189 121 l 338 121 l 338 365 l 268 365 z "},"h":{"ha":556,"x_min":63,"x_max":493,"o":"m 360 0 l 360 453 l 196 453 l 196 0 l 63 0 l 63 997 l 196 997 l 196 574 l 360 574 l 360 997 l 493 997 l 493 0 l 360 0 z "},"i":{"ha":258,"x_min":63,"x_max":196,"o":"m 63 0 l 63 997 l 196 997 l 196 0 l 63 0 z "},"j":{"ha":357,"x_min":14,"x_max":294,"o":"m 14 121 l 101 121 q 161 193 161 121 l 161 997 l 294 997 l 294 168 q 140 0 294 0 l 14 0 l 14 121 z "},"k":{"ha":517,"x_min":63,"x_max":503,"o":"m 196 0 l 63 0 l 63 997 l 196 997 l 196 0 m 503 0 l 369 0 l 203 488 l 203 496 l 342 997 l 464 997 l 324 501 l 503 0 z "},"l":{"ha":393,"x_min":63,"x_max":379,"o":"m 379 0 l 63 0 l 63 997 l 196 997 l 196 121 l 379 121 l 379 0 z "},"m":{"ha":667,"x_min":63,"x_max":604,"o":"m 333 411 l 457 997 l 604 997 l 604 0 l 471 0 l 485 653 l 385 181 l 282 181 l 182 653 l 196 0 l 63 0 l 63 997 l 210 997 l 333 411 z "},"n":{"ha":535,"x_min":63,"x_max":472,"o":"m 339 515 l 339 997 l 472 997 l 472 0 l 339 0 l 339 199 l 196 653 l 196 0 l 63 0 l 63 997 l 196 997 l 339 515 z "},"o":{"ha":558,"x_min":56,"x_max":503,"o":"m 217 0 q 56 169 56 0 l 56 826 q 215 997 56 997 l 343 997 q 503 826 503 997 l 503 169 q 342 0 503 0 l 217 0 m 249 121 l 317 121 q 369 179 369 121 l 369 818 q 310 876 369 876 l 247 876 q 189 818 189 876 l 189 179 q 249 121 189 121 z "},"p":{"ha":510,"x_min":63,"x_max":467,"o":"m 63 997 l 306 997 q 467 826 467 997 l 467 531 q 307 361 467 361 l 196 361 l 196 0 l 63 0 l 63 997 m 196 482 l 281 482 q 333 540 333 482 l 333 818 q 274 876 333 876 l 196 876 l 196 482 z "},"q":{"ha":579,"x_min":56,"x_max":579,"o":"m 579 0 l 217 0 q 56 168 56 0 l 56 826 q 215 997 56 997 l 343 997 q 503 826 503 997 l 503 121 l 579 121 l 579 0 m 369 121 l 369 818 q 310 876 369 876 l 247 876 q 189 818 189 876 l 189 179 q 249 121 189 121 l 369 121 z "},"r":{"ha":525,"x_min":63,"x_max":490,"o":"m 63 997 l 324 997 q 476 826 476 997 l 476 581 q 397 415 476 450 l 490 0 l 364 0 l 276 403 l 196 403 l 196 0 l 63 0 l 63 997 m 196 517 l 283 517 q 343 589 343 517 l 343 804 q 283 876 343 876 l 196 876 l 196 517 z "},"s":{"ha":500,"x_min":49,"x_max":451,"o":"m 318 729 l 318 817 q 260 876 318 876 l 239 876 q 182 817 182 876 l 182 651 q 193 614 182 624 q 229 589 204 604 l 356 521 q 415 484 397 497 q 442 452 432 471 q 451 381 451 433 l 451 168 q 290 0 451 0 l 208 0 q 49 183 49 0 l 49 233 l 182 233 l 182 179 q 242 121 182 121 l 265 121 q 318 179 318 121 l 318 349 q 307 386 318 376 q 271 411 296 396 l 144 482 q 84 519 103 504 q 57 559 65 535 q 49 622 49 583 l 49 826 q 208 997 49 997 l 292 997 q 451 826 451 997 l 451 729 l 318 729 z "},"t":{"ha":417,"x_min":14,"x_max":403,"o":"m 275 876 l 275 0 l 142 0 l 142 876 l 14 876 l 14 997 l 403 997 l 403 876 l 275 876 z "},"u":{"ha":558,"x_min":63,"x_max":496,"o":"m 496 997 l 496 189 q 335 0 496 0 l 222 0 q 63 190 63 0 l 63 997 l 196 997 l 196 186 q 254 121 196 121 l 308 121 q 363 186 363 121 l 363 997 l 496 997 z "},"v":{"ha":508,"x_min":14,"x_max":494,"o":"m 494 997 l 333 0 l 175 0 l 14 997 l 146 997 l 254 236 l 363 997 l 494 997 z "},"w":{"ha":774,"x_min":14,"x_max":760,"o":"m 760 997 l 613 0 l 468 0 l 386 578 l 306 0 l 161 0 l 14 997 l 146 997 l 240 250 l 335 997 l 439 997 l 533 250 l 628 997 l 760 997 z "},"x":{"ha":463,"x_min":19,"x_max":443,"o":"m 440 0 l 311 0 l 236 379 l 233 379 l 143 0 l 19 0 l 146 504 l 28 997 l 158 997 l 233 629 l 236 629 l 319 997 l 443 997 l 324 504 l 440 0 z "},"y":{"ha":486,"x_min":14,"x_max":472,"o":"m 311 0 l 178 0 l 178 367 l 14 997 l 146 997 l 246 564 l 250 564 l 340 997 l 472 997 l 311 367 l 311 0 z "},"z":{"ha":407,"x_min":14,"x_max":393,"o":"m 168 121 l 393 121 l 393 0 l 24 0 l 14 47 l 224 875 l 36 875 l 36 997 l 338 997 l 365 940 l 168 121 z "},"{":{"ha":315,"x_min":7,"x_max":315,"o":"m 115 421 q 203 301 203 393 l 203 -86 q 263 -157 203 -157 l 315 -157 l 315 -253 l 240 -253 q 86 -82 86 -253 l 86 289 q 7 361 86 361 l 7 474 q 86 546 86 474 l 86 826 q 240 997 86 997 l 315 997 l 315 901 l 263 901 q 203 831 203 901 l 203 528 q 115 421 203 440 z "},"|":{"ha":264,"x_min":71,"x_max":193,"o":"m 71 -111 l 71 1108 l 193 1108 l 193 -111 l 71 -111 z "},"}":{"ha":315,"x_min":0,"x_max":308,"o":"m 200 421 q 111 528 111 440 l 111 831 q 51 901 111 901 l 0 901 l 0 997 l 75 997 q 228 826 228 997 l 228 546 q 308 474 228 474 l 308 361 q 228 289 228 361 l 228 -82 q 75 -253 228 -253 l 0 -253 l 0 -157 l 51 -157 q 111 -86 111 -157 l 111 301 q 200 421 111 393 z "},"€":{"ha":533,"x_min":14,"x_max":478,"o":"m 329 622 l 329 542 l 197 542 l 197 483 l 283 483 l 283 401 l 197 401 l 197 179 q 256 121 197 121 l 290 121 q 344 176 344 121 l 344 217 l 478 217 l 478 168 q 317 0 478 0 l 224 0 q 64 175 64 0 l 64 401 l 14 401 l 14 483 l 64 483 l 64 542 l 14 542 l 14 622 l 64 622 l 64 826 q 224 997 64 997 l 317 997 q 478 826 478 997 l 478 772 l 344 772 l 344 817 q 283 876 344 876 l 256 876 q 197 818 197 876 l 197 622 l 329 622 z "},"‚":{"ha":224,"x_min":19,"x_max":168,"o":"m 21 -206 l 85 -26 l 19 -26 l 19 161 l 113 161 q 168 106 168 161 l 168 -26 l 101 -206 l 21 -206 z "},"ƒ":{"ha":435,"x_min":-104,"x_max":403,"o":"m -90 -137 l -21 -137 q 21 -93 15 -137 l 103 579 l 47 579 l 60 688 l 115 688 l 135 856 q 174 966 146 935 q 279 997 201 997 l 403 997 l 389 881 l 304 881 q 258 838 264 881 l 240 688 l 365 688 l 353 579 l 228 579 l 143 -112 q 104 -223 132 -192 q 1 -254 76 -254 l -104 -254 l -90 -137 z "},"„":{"ha":443,"x_min":33,"x_max":403,"o":"m 256 -206 l 319 -26 l 254 -26 l 254 161 l 347 161 q 403 106 403 161 l 403 -26 l 336 -206 l 256 -206 m 35 -206 l 99 -26 l 33 -26 l 33 161 l 126 161 q 182 106 182 161 l 182 -26 l 115 -206 l 35 -206 z "},"…":{"ha":676,"x_min":42,"x_max":633,"o":"m 183 169 l 183 0 l 42 0 l 42 169 l 183 169 m 408 169 l 408 0 l 267 0 l 267 169 l 408 169 m 633 169 l 633 0 l 492 0 l 492 169 l 633 169 z "},"†":{"ha":497,"x_min":28,"x_max":469,"o":"m 469 586 l 469 715 l 314 715 l 314 997 l 182 997 l 182 715 l 28 715 l 28 586 l 182 586 l 182 -253 l 314 -253 l 314 586 l 469 586 z "},"‡":{"ha":497,"x_min":28,"x_max":469,"o":"m 28 129 l 28 0 l 182 0 l 182 -253 l 314 -253 l 314 0 l 469 0 l 469 129 l 314 129 l 314 586 l 469 586 l 469 715 l 314 715 l 314 997 l 182 997 l 182 715 l 28 715 l 28 586 l 182 586 l 182 129 l 28 129 z "},"ˆ":{"ha":444,"x_min":58,"x_max":381,"o":"m 219 861 l 161 781 l 58 781 l 178 936 l 261 936 l 381 781 l 278 781 l 219 861 z "},"‰":{"ha":1200,"x_min":56,"x_max":1144,"o":"m 631 997 l 314 0 l 229 0 l 546 997 l 631 997 m 210 464 l 165 464 q 56 568 56 464 l 56 893 q 165 997 56 997 l 210 997 q 319 893 319 997 l 319 568 q 210 464 319 464 m 197 921 l 176 921 q 146 882 146 921 l 146 578 q 176 539 146 539 l 197 539 q 229 578 229 539 l 229 882 q 197 921 229 921 m 694 0 l 650 0 q 540 104 540 0 l 540 429 q 650 533 540 533 l 694 533 q 804 429 804 533 l 804 104 q 694 0 804 0 m 682 457 l 661 457 q 631 418 631 457 l 631 114 q 661 75 631 75 l 682 75 q 714 114 714 75 l 714 418 q 682 457 714 457 m 1035 0 l 990 0 q 881 104 881 0 l 881 429 q 990 533 881 533 l 1035 533 q 1144 429 1144 533 l 1144 104 q 1035 0 1144 0 m 1022 457 l 1001 457 q 971 418 971 457 l 971 114 q 1001 75 971 75 l 1022 75 q 1054 114 1054 75 l 1054 418 q 1022 457 1054 457 z "},"Š":{"ha":500,"x_min":49,"x_max":451,"o":"m 318 729 l 318 817 q 260 876 318 876 l 239 876 q 182 817 182 876 l 182 651 q 193 614 182 624 q 229 589 204 604 l 356 521 q 415 484 397 497 q 442 452 432 471 q 451 381 451 433 l 451 168 q 290 0 451 0 l 208 0 q 49 183 49 0 l 49 233 l 182 233 l 182 179 q 242 121 182 121 l 265 121 q 318 179 318 121 l 318 349 q 307 386 318 376 q 271 411 296 396 l 144 482 q 84 519 103 504 q 57 559 65 535 q 49 622 49 583 l 49 826 q 208 997 49 997 l 292 997 q 451 826 451 997 l 451 729 l 318 729 m 250 1138 l 308 1218 l 411 1218 l 292 1063 l 208 1063 l 89 1218 l 192 1218 l 250 1138 z "},"‹":{"ha":321,"x_min":17,"x_max":279,"o":"m 279 194 l 136 483 l 279 772 l 164 772 l 17 483 l 164 194 l 279 194 z "},"Œ":{"ha":743,"x_min":56,"x_max":715,"o":"m 715 121 l 715 0 l 435 0 l 435 42 l 379 0 l 215 0 q 56 171 56 0 l 56 826 q 215 997 56 997 l 379 997 l 435 956 l 435 997 l 715 997 l 715 875 l 518 875 l 518 574 l 693 574 l 693 453 l 518 453 l 518 121 l 715 121 m 249 121 l 333 121 q 386 181 386 121 l 386 817 q 326 876 386 876 l 247 876 q 189 818 189 876 l 189 179 q 249 121 189 121 z "},"":{"ha":407,"x_min":14,"x_max":393,"o":"m 168 121 l 393 121 l 393 0 l 24 0 l 14 47 l 224 875 l 36 875 l 36 997 l 338 997 l 365 940 l 168 121 m 222 1133 l 281 1214 l 383 1214 l 264 1058 l 181 1058 l 61 1214 l 164 1214 l 222 1133 z "},"‘":{"ha":224,"x_min":42,"x_max":190,"o":"m 189 999 l 125 819 l 190 819 l 190 632 l 97 632 q 42 688 42 632 l 42 819 l 108 999 l 189 999 z "},"’":{"ha":210,"x_min":19,"x_max":168,"o":"m 21 632 l 85 811 l 19 811 l 19 999 l 113 999 q 168 943 168 999 l 168 811 l 101 632 l 21 632 z "},"“":{"ha":443,"x_min":42,"x_max":410,"o":"m 189 999 l 125 819 l 190 819 l 190 632 l 97 632 q 42 688 42 632 l 42 819 l 108 999 l 189 999 m 408 999 l 344 819 l 410 819 l 410 632 l 317 632 q 261 688 261 632 l 261 819 l 328 999 l 408 999 z "},"”":{"ha":443,"x_min":33,"x_max":403,"o":"m 256 632 l 319 811 l 254 811 l 254 999 l 347 999 q 403 943 403 999 l 403 811 l 336 632 l 256 632 m 35 632 l 99 811 l 33 811 l 33 999 l 126 999 q 182 943 182 999 l 182 811 l 115 632 l 35 632 z "},"•":{"ha":267,"x_min":0,"x_max":183,"o":"m 183 657 l 183 404 l 0 404 l 0 657 l 183 657 z "},"–":{"ha":397,"x_min":0,"x_max":397,"o":"m 0 403 l 0 501 l 397 501 l 397 403 l 0 403 z "},"—":{"ha":653,"x_min":0,"x_max":653,"o":"m 0 403 l 0 501 l 653 501 l 653 403 l 0 403 z "},"˜":{"ha":408,"x_min":54,"x_max":353,"o":"m 353 913 q 319 820 351 851 q 246 788 288 789 q 218 792 231 788 q 195 801 206 796 q 176 810 185 806 q 156 815 167 815 q 122 781 129 815 l 54 781 q 83 869 54 840 q 153 901 113 899 q 178 897 167 901 q 200 888 189 893 q 222 878 211 882 q 246 874 233 874 q 269 885 260 876 q 281 913 279 894 l 353 913 z "},"™":{"ha":671,"x_min":28,"x_max":629,"o":"m 261 926 l 261 997 l 28 997 l 28 926 l 106 926 l 106 417 l 182 417 l 182 926 l 261 926 m 471 657 l 543 997 l 629 997 l 629 417 l 551 417 l 560 797 l 501 522 l 442 522 l 383 797 l 392 417 l 314 417 l 314 997 l 400 997 l 471 657 z "},"š":{"ha":500,"x_min":49,"x_max":451,"o":"m 318 729 l 318 817 q 260 876 318 876 l 239 876 q 182 817 182 876 l 182 651 q 193 614 182 624 q 229 589 204 604 l 356 521 q 415 484 397 497 q 442 452 432 471 q 451 381 451 433 l 451 168 q 290 0 451 0 l 208 0 q 49 183 49 0 l 49 233 l 182 233 l 182 179 q 242 121 182 121 l 265 121 q 318 179 318 121 l 318 349 q 307 386 318 376 q 271 411 296 396 l 144 482 q 84 519 103 504 q 57 559 65 535 q 49 622 49 583 l 49 826 q 208 997 49 997 l 292 997 q 451 826 451 997 l 451 729 l 318 729 m 236 1133 l 294 1214 l 397 1214 l 278 1058 l 194 1058 l 75 1214 l 178 1214 l 236 1133 z "},"›":{"ha":321,"x_min":42,"x_max":304,"o":"m 42 194 l 157 194 l 304 483 l 157 772 l 42 772 l 186 483 l 42 194 z "},"œ":{"ha":743,"x_min":56,"x_max":715,"o":"m 715 121 l 715 0 l 435 0 l 435 42 l 379 0 l 215 0 q 56 171 56 0 l 56 826 q 215 997 56 997 l 379 997 l 435 956 l 435 997 l 715 997 l 715 875 l 518 875 l 518 574 l 693 574 l 693 453 l 518 453 l 518 121 l 715 121 m 249 121 l 333 121 q 386 181 386 121 l 386 817 q 326 876 386 876 l 247 876 q 189 818 189 876 l 189 179 q 249 121 189 121 z "},"":{"ha":407,"x_min":14,"x_max":393,"o":"m 168 121 l 393 121 l 393 0 l 24 0 l 14 47 l 224 875 l 36 875 l 36 997 l 338 997 l 365 940 l 168 121 m 222 1147 l 281 1228 l 383 1228 l 264 1072 l 181 1072 l 61 1228 l 164 1228 l 222 1147 z "},"Ÿ":{"ha":486,"x_min":14,"x_max":472,"o":"m 311 0 l 178 0 l 178 367 l 14 997 l 146 997 l 246 564 l 250 564 l 340 997 l 472 997 l 311 367 l 311 0 m 183 1201 l 183 1063 l 72 1063 l 72 1201 l 183 1201 m 378 1201 l 378 1063 l 267 1063 l 267 1201 l 378 1201 z "},"¡":{"ha":271,"x_min":64,"x_max":211,"o":"m 64 0 l 81 728 l 193 728 l 211 0 l 64 0 m 64 828 l 64 997 l 206 997 l 206 828 l 64 828 z "},"¢":{"ha":482,"x_min":56,"x_max":426,"o":"m 307 710 l 307 761 q 250 815 307 815 l 238 815 q 181 761 181 815 l 181 351 q 238 297 181 297 l 250 297 q 307 351 307 297 l 307 399 l 426 399 l 426 340 q 293 199 426 199 l 289 199 l 289 115 l 192 115 l 192 199 l 189 199 q 56 340 56 199 l 56 772 q 188 914 56 914 l 192 914 l 192 997 l 289 997 l 289 914 l 293 914 q 426 772 426 914 l 426 710 l 307 710 z "},"£":{"ha":546,"x_min":4,"x_max":504,"o":"m 504 250 l 504 168 q 343 0 504 0 l 54 0 l 54 486 l 4 486 l 4 593 l 54 593 l 54 826 q 214 997 54 997 l 343 997 q 504 826 504 997 l 504 739 l 371 739 l 371 818 q 310 876 371 876 l 246 876 q 188 818 188 876 l 188 593 l 340 593 l 340 486 l 188 486 l 188 121 l 318 121 q 371 179 371 121 l 371 250 l 504 250 z "},"¤":{"ha":533,"x_min":14,"x_max":478,"o":"m 329 622 l 329 542 l 197 542 l 197 483 l 283 483 l 283 401 l 197 401 l 197 179 q 256 121 197 121 l 290 121 q 344 176 344 121 l 344 217 l 478 217 l 478 168 q 317 0 478 0 l 224 0 q 64 175 64 0 l 64 401 l 14 401 l 14 483 l 64 483 l 64 542 l 14 542 l 14 622 l 64 622 l 64 826 q 224 997 64 997 l 317 997 q 478 826 478 997 l 478 772 l 344 772 l 344 817 q 283 876 344 876 l 256 876 q 197 818 197 876 l 197 622 l 329 622 z "},"¥":{"ha":486,"x_min":14,"x_max":472,"o":"m 397 240 l 397 172 l 311 172 l 311 0 l 178 0 l 178 172 l 92 172 l 92 240 l 178 240 l 178 285 l 92 285 l 92 353 l 178 353 l 178 367 l 14 997 l 146 997 l 246 564 l 250 564 l 340 997 l 472 997 l 311 367 l 311 353 l 397 353 l 397 285 l 311 285 l 311 240 l 397 240 z "},"¦":{"ha":292,"x_min":83,"x_max":208,"o":"m 208 483 l 208 997 l 83 997 l 83 483 l 208 483 m 208 -253 l 208 261 l 83 261 l 83 -253 l 208 -253 z "},"§":{"ha":475,"x_min":56,"x_max":419,"o":"m 299 799 l 299 844 q 246 899 299 899 q 189 844 189 899 l 189 744 q 197 719 189 725 q 224 704 206 713 l 318 668 q 358 652 339 660 q 389 635 376 644 q 408 610 401 625 q 415 569 415 594 l 415 479 q 376 374 415 404 q 402 347 394 363 q 410 307 410 332 l 410 142 q 276 0 410 0 l 189 0 q 56 142 56 0 l 56 217 l 176 217 l 176 151 q 232 97 176 97 q 286 151 286 97 l 286 243 q 280 279 286 265 q 246 304 274 293 l 156 338 q 119 351 136 343 q 87 369 101 358 q 65 397 72 381 q 57 435 57 413 l 57 524 q 97 629 57 604 q 72 659 79 643 q 64 699 64 675 l 64 856 q 197 997 64 997 l 286 997 q 419 856 419 997 l 419 799 l 299 799 m 293 522 q 239 575 293 575 q 182 522 182 575 l 182 485 q 239 431 182 431 q 293 485 293 431 l 293 522 z "},"¨":{"ha":389,"x_min":42,"x_max":347,"o":"m 153 919 l 153 781 l 42 781 l 42 919 l 153 919 m 347 919 l 347 781 l 236 781 l 236 919 l 347 919 z "},"©":{"ha":858,"x_min":63,"x_max":796,"o":"m 488 617 l 488 683 q 431 736 488 736 q 375 683 375 736 l 375 313 q 431 260 375 260 q 488 313 488 260 l 488 372 l 599 372 l 599 306 q 465 164 599 164 l 392 164 q 258 306 258 164 l 258 690 q 392 832 258 832 l 465 832 q 599 690 599 832 l 599 617 l 488 617 m 267 0 q 63 218 63 0 l 63 776 q 267 997 63 997 l 592 997 q 796 776 796 997 l 796 218 q 592 0 796 0 l 267 0 m 278 100 l 578 100 q 688 221 688 100 l 688 775 q 578 897 688 897 l 278 897 q 169 775 169 897 l 169 221 q 278 100 169 100 z "},"ª":{"ha":417,"x_min":42,"x_max":375,"o":"m 147 319 l 42 319 l 42 842 q 201 997 42 997 l 215 997 q 375 842 375 997 l 375 319 l 269 319 l 269 529 l 147 529 l 147 319 m 269 622 l 269 843 q 211 906 269 906 l 206 906 q 147 843 147 906 l 147 622 l 269 622 z "},"«":{"ha":538,"x_min":17,"x_max":496,"o":"m 279 194 l 136 483 l 279 772 l 164 772 l 17 483 l 164 194 l 279 194 m 496 194 l 353 483 l 496 772 l 381 772 l 233 483 l 381 194 l 496 194 z "},"¬":{"ha":578,"x_min":58,"x_max":514,"o":"m 58 417 l 58 533 l 514 533 l 514 289 l 393 289 l 393 417 l 58 417 z "},"®":{"ha":853,"x_min":63,"x_max":790,"o":"m 601 169 l 496 169 l 432 419 l 378 419 l 378 169 l 261 169 l 261 819 l 489 819 q 593 703 593 819 l 593 535 q 533 426 593 451 l 601 169 m 378 515 l 435 515 q 476 565 476 515 l 476 668 q 435 717 476 717 l 378 717 l 378 515 m 267 0 q 63 218 63 0 l 63 776 q 267 997 63 997 l 586 997 q 790 776 790 997 l 790 218 q 586 0 790 0 l 267 0 m 278 100 l 572 100 q 682 221 682 100 l 682 775 q 572 897 682 897 l 278 897 q 169 775 169 897 l 169 221 q 278 100 169 100 z "},"¯":{"ha":397,"x_min":25,"x_max":372,"o":"m 372 836 l 372 935 l 25 935 l 25 836 l 372 836 z "},"°":{"ha":381,"x_min":42,"x_max":339,"o":"m 42 857 q 53 798 42 825 q 85 751 65 771 q 131 720 104 732 q 189 708 158 708 q 247 720 219 708 q 295 751 275 732 q 327 798 315 771 q 339 857 339 825 q 327 915 339 888 q 295 962 315 942 q 247 994 275 982 q 189 1006 219 1006 q 131 994 158 1006 q 85 962 104 982 q 53 915 65 942 q 42 857 42 888 m 106 857 q 130 917 106 893 q 189 942 154 942 q 247 917 222 942 q 272 857 272 893 q 247 799 272 824 q 189 775 222 775 q 130 799 154 775 q 106 857 106 824 z "},"±":{"ha":501,"x_min":56,"x_max":474,"o":"m 331 567 l 331 411 l 208 411 l 208 567 l 56 567 l 56 683 l 208 683 l 208 844 l 331 844 l 331 683 l 474 683 l 474 567 l 331 567 m 56 185 l 56 303 l 417 303 l 417 185 l 56 185 z "},"²":{"ha":328,"x_min":42,"x_max":286,"o":"m 283 539 l 283 464 l 54 464 l 54 654 q 58 686 54 674 q 85 714 63 699 l 174 774 q 193 791 190 783 q 196 814 196 799 l 196 894 q 171 921 196 921 l 151 921 q 125 894 125 921 l 125 854 l 42 854 l 42 900 q 128 997 42 997 l 199 997 q 286 900 286 997 l 286 786 q 282 756 286 767 q 260 733 278 744 l 167 668 q 148 651 151 658 q 144 628 144 644 l 144 539 l 283 539 z "},"³":{"ha":349,"x_min":42,"x_max":307,"o":"m 250 738 q 307 678 307 722 l 307 549 q 221 464 307 464 l 128 464 q 42 549 42 464 l 42 599 l 132 599 l 132 567 q 163 540 132 540 l 188 540 q 217 569 217 540 l 217 664 q 189 701 217 701 l 150 703 l 150 768 l 178 769 q 208 801 208 769 l 208 896 q 179 921 208 921 l 164 921 q 135 896 135 921 l 135 857 l 44 857 l 44 894 q 131 997 44 997 l 213 997 q 299 894 299 997 l 299 793 q 250 738 299 747 z "},"´":{"ha":211,"x_min":14,"x_max":200,"o":"m 108 781 l 14 781 l 78 944 l 200 944 l 108 781 z "},"µ":{"ha":557,"x_min":69,"x_max":547,"o":"m 360 997 l 485 997 l 485 139 q 519 100 485 100 l 547 100 l 547 0 l 457 0 l 401 56 q 290 0 356 0 l 189 0 l 189 -253 l 69 -253 l 69 997 l 193 997 l 193 174 q 249 121 193 121 l 360 121 l 360 997 z "},"¶":{"ha":651,"x_min":56,"x_max":582,"o":"m 483 -139 l 483 897 l 249 897 q 189 825 189 897 l 189 657 q 249 585 189 585 l 303 585 l 303 818 l 411 818 l 411 -139 l 303 -139 l 303 472 l 208 472 q 56 650 56 472 l 56 826 q 208 997 56 997 l 582 997 l 582 -139 l 483 -139 z "},"·":{"ha":225,"x_min":42,"x_max":183,"o":"m 183 558 l 183 389 l 42 389 l 42 558 l 183 558 z "},"¸":{"ha":308,"x_min":69,"x_max":239,"o":"m 69 -190 l 133 -190 q 168 -157 168 -190 l 168 -137 q 133 -99 168 -99 l 78 -99 l 78 36 l 150 36 l 150 -43 l 163 -43 q 239 -124 239 -43 l 239 -176 q 161 -253 239 -251 l 69 -253 l 69 -190 z "},"¹":{"ha":222,"x_min":19,"x_max":181,"o":"m 35 853 l 19 915 q 97 997 74 940 l 181 997 l 181 464 l 90 464 l 90 869 l 35 853 z "},"º":{"ha":347,"x_min":42,"x_max":306,"o":"m 196 464 l 151 464 q 42 568 42 464 l 42 893 q 151 997 42 997 l 196 997 q 306 893 306 997 l 306 568 q 196 464 306 464 m 183 921 l 163 921 q 132 882 132 921 l 132 578 q 163 539 132 539 l 183 539 q 215 578 215 539 l 215 882 q 183 921 215 921 z "},"»":{"ha":538,"x_min":42,"x_max":521,"o":"m 258 772 l 403 483 l 258 194 l 374 194 l 521 483 l 374 772 l 258 772 m 42 772 l 186 483 l 42 194 l 157 194 l 304 483 l 157 772 l 42 772 z "},"¼":{"ha":707,"x_min":42,"x_max":651,"o":"m 604 1039 l 153 -42 l 74 -42 l 522 1039 l 604 1039 m 600 100 l 600 0 l 510 0 l 510 100 l 351 100 l 338 175 l 481 511 l 600 511 l 600 176 l 651 176 l 651 100 l 600 100 m 517 403 l 508 403 l 435 176 l 510 176 l 517 403 m 57 853 l 42 915 q 119 997 96 940 l 203 997 l 203 464 l 113 464 l 113 869 l 57 853 z "},"½":{"ha":756,"x_min":42,"x_max":700,"o":"m 604 1039 l 153 -42 l 74 -42 l 522 1039 l 604 1039 m 57 853 l 42 915 q 119 997 96 940 l 203 997 l 203 464 l 113 464 l 113 869 l 57 853 m 697 75 l 697 0 l 468 0 l 468 190 q 472 222 468 210 q 499 250 476 235 l 588 310 q 607 327 604 319 q 610 350 610 335 l 610 431 q 585 457 610 457 l 565 457 q 539 431 539 457 l 539 390 l 456 390 l 456 436 q 542 533 456 533 l 613 533 q 700 436 700 533 l 700 322 q 696 292 700 303 q 674 269 692 281 l 581 204 q 562 188 565 194 q 558 164 558 181 l 558 75 l 697 75 z "},"¾":{"ha":794,"x_min":56,"x_max":739,"o":"m 692 1039 l 240 -42 l 161 -42 l 610 1039 l 692 1039 m 688 100 l 688 0 l 597 0 l 597 100 l 439 100 l 425 175 l 568 511 l 688 511 l 688 176 l 739 176 l 739 100 l 688 100 m 604 403 l 596 403 l 522 176 l 597 176 l 604 403 m 264 738 q 321 678 321 722 l 321 549 q 235 464 321 464 l 142 464 q 56 549 56 464 l 56 599 l 146 599 l 146 567 q 176 540 146 540 l 201 540 q 231 569 231 540 l 231 664 q 203 701 231 701 l 164 703 l 164 768 l 192 769 q 222 801 222 769 l 222 896 q 193 921 222 921 l 178 921 q 149 896 149 921 l 149 857 l 58 857 l 58 894 q 144 997 58 997 l 226 997 q 313 894 313 997 l 313 793 q 264 738 313 747 z "},"¿":{"ha":522,"x_min":56,"x_max":488,"o":"m 354 728 l 354 560 q 349 513 354 529 q 337 486 344 496 q 310 461 329 476 l 214 390 q 193 365 197 376 q 189 325 189 353 l 189 186 q 233 122 189 122 l 299 122 q 354 186 354 122 l 354 219 l 488 219 l 488 171 q 333 0 488 0 l 208 0 q 56 171 56 0 l 56 374 q 60 421 56 404 q 76 449 65 438 q 103 472 86 460 l 196 544 q 217 569 213 557 q 221 608 221 581 l 221 728 l 354 728 m 214 828 l 214 997 l 356 997 l 356 828 l 214 828 z "},"À":{"ha":531,"x_min":56,"x_max":475,"o":"m 189 0 l 56 0 l 56 826 q 215 997 56 997 l 315 997 q 475 826 475 997 l 475 0 l 342 0 l 342 365 l 189 365 l 189 0 m 342 486 l 342 818 q 283 876 342 876 l 247 876 q 189 818 189 876 l 189 486 l 342 486 m 165 1226 l 288 1226 l 351 1063 l 257 1063 l 165 1226 z "},"Á":{"ha":531,"x_min":56,"x_max":475,"o":"m 189 0 l 56 0 l 56 826 q 215 997 56 997 l 315 997 q 475 826 475 997 l 475 0 l 342 0 l 342 365 l 189 365 l 189 0 m 342 486 l 342 818 q 283 876 342 876 l 247 876 q 189 818 189 876 l 189 486 l 342 486 m 268 1063 l 174 1063 l 238 1226 l 360 1226 l 268 1063 z "},"Â":{"ha":531,"x_min":56,"x_max":475,"o":"m 189 0 l 56 0 l 56 826 q 215 997 56 997 l 315 997 q 475 826 475 997 l 475 0 l 342 0 l 342 365 l 189 365 l 189 0 m 342 486 l 342 818 q 283 876 342 876 l 247 876 q 189 818 189 876 l 189 486 l 342 486 m 258 1143 l 200 1063 l 97 1063 l 217 1218 l 300 1218 l 419 1063 l 317 1063 l 258 1143 z "},"Ã":{"ha":531,"x_min":56,"x_max":475,"o":"m 189 0 l 56 0 l 56 826 q 215 997 56 997 l 315 997 q 475 826 475 997 l 475 0 l 342 0 l 342 365 l 189 365 l 189 0 m 342 486 l 342 818 q 283 876 342 876 l 247 876 q 189 818 189 876 l 189 486 l 342 486 m 410 1194 q 376 1102 408 1133 q 303 1069 344 1071 q 275 1074 288 1069 q 252 1083 263 1078 q 233 1092 242 1088 q 213 1097 224 1097 q 179 1063 186 1097 l 111 1063 q 140 1151 111 1122 q 210 1183 169 1181 q 235 1179 224 1183 q 257 1169 246 1175 q 279 1160 268 1164 q 303 1156 290 1156 q 326 1167 317 1158 q 338 1194 336 1176 l 410 1194 z "},"Ä":{"ha":531,"x_min":56,"x_max":475,"o":"m 189 0 l 56 0 l 56 826 q 215 997 56 997 l 315 997 q 475 826 475 997 l 475 0 l 342 0 l 342 365 l 189 365 l 189 0 m 342 486 l 342 818 q 283 876 342 876 l 247 876 q 189 818 189 876 l 189 486 l 342 486 m 213 1201 l 213 1063 l 101 1063 l 101 1201 l 213 1201 m 407 1201 l 407 1063 l 296 1063 l 296 1201 l 407 1201 z "},"Å":{"ha":531,"x_min":56,"x_max":475,"o":"m 189 0 l 56 0 l 56 826 q 215 997 56 997 l 315 997 q 475 826 475 997 l 475 0 l 342 0 l 342 365 l 189 365 l 189 0 m 342 486 l 342 818 q 283 876 342 876 l 247 876 q 189 818 189 876 l 189 486 l 342 486 m 365 1133 q 335 1057 365 1088 q 261 1026 306 1026 q 188 1057 219 1026 q 156 1133 156 1088 q 188 1211 156 1181 q 261 1242 219 1242 q 335 1211 306 1242 q 365 1133 365 1181 m 308 1133 q 294 1168 308 1154 q 261 1182 281 1182 q 228 1168 242 1182 q 214 1133 214 1154 q 228 1099 214 1113 q 261 1085 242 1085 q 294 1099 281 1085 q 308 1133 308 1113 z "},"Æ":{"ha":707,"x_min":56,"x_max":672,"o":"m 189 0 l 56 0 l 56 826 q 215 997 56 997 l 672 997 l 672 876 l 475 876 l 475 574 l 650 574 l 650 453 l 475 453 l 475 121 l 672 121 l 672 0 l 342 0 l 342 365 l 189 365 l 189 0 m 342 486 l 342 876 l 247 876 q 189 818 189 876 l 189 486 l 342 486 z "},"Ç":{"ha":503,"x_min":56,"x_max":461,"o":"m 461 233 l 461 169 q 301 0 461 0 l 215 0 q 56 169 56 0 l 56 828 q 215 997 56 997 l 301 997 q 461 828 461 997 l 461 715 l 328 715 l 328 818 q 268 876 328 876 l 242 876 q 189 818 189 876 l 189 179 q 242 121 189 121 l 275 121 q 328 179 328 121 l 328 233 l 461 233 m 194 -190 l 258 -190 q 293 -157 293 -190 l 293 -137 q 258 -99 293 -99 l 203 -99 l 203 36 l 275 36 l 275 -43 l 288 -43 q 364 -124 364 -43 l 364 -176 q 286 -253 364 -251 l 194 -253 l 194 -190 z "},"È":{"ha":426,"x_min":63,"x_max":393,"o":"m 63 0 l 63 997 l 393 997 l 393 876 l 196 876 l 196 574 l 371 574 l 371 453 l 196 453 l 196 121 l 393 121 l 393 0 l 63 0 m 104 1226 l 226 1226 l 290 1063 l 196 1063 l 104 1226 z "},"É":{"ha":426,"x_min":63,"x_max":393,"o":"m 63 0 l 63 997 l 393 997 l 393 876 l 196 876 l 196 574 l 371 574 l 371 453 l 196 453 l 196 121 l 393 121 l 393 0 l 63 0 m 229 1063 l 135 1063 l 199 1226 l 321 1226 l 229 1063 z "},"Ê":{"ha":426,"x_min":58,"x_max":393,"o":"m 63 0 l 63 997 l 393 997 l 393 876 l 196 876 l 196 574 l 371 574 l 371 453 l 196 453 l 196 121 l 393 121 l 393 0 l 63 0 m 219 1143 l 161 1063 l 58 1063 l 178 1218 l 261 1218 l 381 1063 l 278 1063 l 219 1143 z "},"Ë":{"ha":426,"x_min":63,"x_max":393,"o":"m 63 0 l 63 997 l 393 997 l 393 876 l 196 876 l 196 574 l 371 574 l 371 453 l 196 453 l 196 121 l 393 121 l 393 0 l 63 0 m 179 1201 l 179 1063 l 68 1063 l 68 1201 l 179 1201 m 374 1201 l 374 1063 l 263 1063 l 263 1201 l 374 1201 z "},"Ì":{"ha":258,"x_min":21,"x_max":207,"o":"m 63 0 l 63 997 l 196 997 l 196 0 l 63 0 m 21 1226 l 143 1226 l 207 1063 l 113 1063 l 21 1226 z "},"Í":{"ha":258,"x_min":38,"x_max":224,"o":"m 63 0 l 63 997 l 196 997 l 196 0 l 63 0 m 132 1063 l 38 1063 l 101 1226 l 224 1226 l 132 1063 z "},"Î":{"ha":258,"x_min":-31,"x_max":292,"o":"m 63 0 l 63 997 l 196 997 l 196 0 l 63 0 m 131 1143 l 72 1063 l -31 1063 l 89 1218 l 172 1218 l 292 1063 l 189 1063 l 131 1143 z "},"Ï":{"ha":258,"x_min":-22,"x_max":283,"o":"m 63 0 l 63 997 l 196 997 l 196 0 l 63 0 m 89 1201 l 89 1063 l -22 1063 l -22 1201 l 89 1201 m 283 1201 l 283 1063 l 172 1063 l 172 1201 l 283 1201 z "},"Ð":{"ha":538,"x_min":15,"x_max":482,"o":"m 63 0 l 63 997 l 294 997 q 482 806 482 997 l 482 144 q 322 0 482 0 l 63 0 m 196 121 l 296 121 q 349 165 349 121 l 349 804 q 289 876 349 876 l 196 876 l 196 121 m 15 422 l 15 533 l 299 533 l 299 422 l 15 422 z "},"Ñ":{"ha":563,"x_min":63,"x_max":472,"o":"m 339 515 l 339 997 l 472 997 l 472 0 l 339 0 l 339 199 l 196 653 l 196 0 l 63 0 l 63 997 l 196 997 l 339 515 m 431 1194 q 397 1102 429 1133 q 324 1069 365 1071 q 296 1074 308 1069 q 273 1083 283 1078 q 253 1092 263 1088 q 233 1097 244 1097 q 200 1063 207 1097 l 132 1063 q 161 1151 132 1122 q 231 1183 190 1181 q 256 1179 244 1183 q 278 1169 267 1175 q 300 1160 289 1164 q 324 1156 311 1156 q 347 1167 338 1158 q 358 1194 357 1176 l 431 1194 z "},"Ò":{"ha":558,"x_min":56,"x_max":503,"o":"m 217 0 q 56 169 56 0 l 56 826 q 215 997 56 997 l 343 997 q 503 826 503 997 l 503 169 q 342 0 503 0 l 217 0 m 249 121 l 317 121 q 369 179 369 121 l 369 818 q 310 876 369 876 l 247 876 q 189 818 189 876 l 189 179 q 249 121 189 121 m 160 1226 l 282 1226 l 346 1063 l 251 1063 l 160 1226 z "},"Ó":{"ha":558,"x_min":56,"x_max":503,"o":"m 217 0 q 56 169 56 0 l 56 826 q 215 997 56 997 l 343 997 q 503 826 503 997 l 503 169 q 342 0 503 0 l 217 0 m 249 121 l 317 121 q 369 179 369 121 l 369 818 q 310 876 369 876 l 247 876 q 189 818 189 876 l 189 179 q 249 121 189 121 m 293 1063 l 199 1063 l 263 1226 l 385 1226 l 293 1063 z "},"Ô":{"ha":558,"x_min":56,"x_max":503,"o":"m 217 0 q 56 169 56 0 l 56 826 q 215 997 56 997 l 343 997 q 503 826 503 997 l 503 169 q 342 0 503 0 l 217 0 m 249 121 l 317 121 q 369 179 369 121 l 369 818 q 310 876 369 876 l 247 876 q 189 818 189 876 l 189 179 q 249 121 189 121 m 279 1143 l 221 1063 l 118 1063 l 238 1218 l 321 1218 l 440 1063 l 338 1063 l 279 1143 z "},"Õ":{"ha":558,"x_min":56,"x_max":503,"o":"m 217 0 q 56 169 56 0 l 56 826 q 215 997 56 997 l 343 997 q 503 826 503 997 l 503 169 q 342 0 503 0 l 217 0 m 249 121 l 317 121 q 369 179 369 121 l 369 818 q 310 876 369 876 l 247 876 q 189 818 189 876 l 189 179 q 249 121 189 121 m 422 1194 q 389 1102 421 1133 q 315 1069 357 1071 q 288 1074 300 1069 q 265 1083 275 1078 q 245 1092 254 1088 q 225 1097 236 1097 q 192 1063 199 1097 l 124 1063 q 153 1151 124 1122 q 222 1183 182 1181 q 247 1179 236 1183 q 269 1169 258 1175 q 292 1160 281 1164 q 315 1156 303 1156 q 339 1167 329 1158 q 350 1194 349 1176 l 422 1194 z "},"Ö":{"ha":558,"x_min":56,"x_max":503,"o":"m 217 0 q 56 169 56 0 l 56 826 q 215 997 56 997 l 343 997 q 503 826 503 997 l 503 169 q 342 0 503 0 l 217 0 m 249 121 l 317 121 q 369 179 369 121 l 369 818 q 310 876 369 876 l 247 876 q 189 818 189 876 l 189 179 q 249 121 189 121 m 233 1201 l 233 1063 l 122 1063 l 122 1201 l 233 1201 m 428 1201 l 428 1063 l 317 1063 l 317 1201 l 428 1201 z "},"×":{"ha":525,"x_min":46,"x_max":478,"o":"m 468 575 l 381 664 l 263 533 l 135 675 l 46 589 l 185 457 l 54 340 l 143 251 l 261 381 l 392 240 l 478 326 l 338 457 l 468 575 z "},"Ø":{"ha":558,"x_min":56,"x_max":503,"o":"m 418 1081 l 401 990 q 503 826 503 963 l 503 169 q 342 0 503 0 l 217 0 l 215 0 l 200 -83 l 138 -83 l 154 7 q 56 169 56 36 l 56 826 q 215 997 56 997 l 340 997 l 356 1081 l 418 1081 m 369 821 l 238 121 l 317 121 q 369 179 369 121 l 369 821 m 189 189 l 317 876 l 247 876 q 189 818 189 876 l 189 189 z "},"Ù":{"ha":558,"x_min":63,"x_max":496,"o":"m 496 997 l 496 189 q 335 0 496 0 l 222 0 q 63 190 63 0 l 63 997 l 196 997 l 196 186 q 254 121 196 121 l 308 121 q 363 186 363 121 l 363 997 l 496 997 m 164 1226 l 286 1226 l 350 1063 l 256 1063 l 164 1226 z "},"Ú":{"ha":558,"x_min":63,"x_max":496,"o":"m 496 997 l 496 189 q 335 0 496 0 l 222 0 q 63 190 63 0 l 63 997 l 196 997 l 196 186 q 254 121 196 121 l 308 121 q 363 186 363 121 l 363 997 l 496 997 m 282 1063 l 188 1063 l 251 1226 l 374 1226 l 282 1063 z "},"Û":{"ha":558,"x_min":63,"x_max":496,"o":"m 496 997 l 496 189 q 335 0 496 0 l 222 0 q 63 190 63 0 l 63 997 l 196 997 l 196 186 q 254 121 196 121 l 308 121 q 363 186 363 121 l 363 997 l 496 997 m 279 1143 l 221 1063 l 118 1063 l 238 1218 l 321 1218 l 440 1063 l 338 1063 l 279 1143 z "},"Ü":{"ha":558,"x_min":63,"x_max":496,"o":"m 496 997 l 496 189 q 335 0 496 0 l 222 0 q 63 190 63 0 l 63 997 l 196 997 l 196 186 q 254 121 196 121 l 308 121 q 363 186 363 121 l 363 997 l 496 997 m 238 1201 l 238 1063 l 126 1063 l 126 1201 l 238 1201 m 432 1201 l 432 1063 l 321 1063 l 321 1201 l 432 1201 z "},"Ý":{"ha":486,"x_min":14,"x_max":472,"o":"m 311 0 l 178 0 l 178 367 l 14 997 l 146 997 l 246 564 l 250 564 l 340 997 l 472 997 l 311 367 l 311 0 m 246 1063 l 151 1063 l 215 1226 l 338 1226 l 246 1063 z "},"Þ":{"ha":524,"x_min":63,"x_max":482,"o":"m 194 831 l 324 831 q 482 660 482 831 l 482 481 q 321 313 482 313 l 196 313 l 196 0 l 63 0 l 63 997 l 194 997 l 194 831 m 196 433 l 296 433 q 349 492 349 433 l 349 651 q 289 710 349 710 l 196 710 l 196 433 z "},"ß":{"ha":600,"x_min":63,"x_max":544,"o":"m 247 121 l 358 121 q 411 179 411 121 l 411 376 q 364 431 411 431 l 276 431 l 276 624 l 324 624 q 363 663 363 624 l 363 815 q 306 876 363 876 l 250 876 q 196 815 196 876 l 196 0 l 63 0 l 63 831 q 215 997 63 997 l 335 997 q 496 828 496 997 l 496 672 q 399 531 496 538 l 399 524 q 544 372 544 519 l 544 142 q 393 0 544 0 l 247 0 l 247 121 z "},"à":{"ha":531,"x_min":56,"x_max":475,"o":"m 189 0 l 56 0 l 56 826 q 215 997 56 997 l 315 997 q 475 826 475 997 l 475 0 l 342 0 l 342 365 l 189 365 l 189 0 m 342 486 l 342 818 q 283 876 342 876 l 247 876 q 189 818 189 876 l 189 486 l 342 486 m 154 1236 l 276 1236 l 340 1072 l 246 1072 l 154 1236 z "},"á":{"ha":531,"x_min":56,"x_max":475,"o":"m 189 0 l 56 0 l 56 826 q 215 997 56 997 l 315 997 q 475 826 475 997 l 475 0 l 342 0 l 342 365 l 189 365 l 189 0 m 342 486 l 342 818 q 283 876 342 876 l 247 876 q 189 818 189 876 l 189 486 l 342 486 m 275 1072 l 181 1072 l 244 1236 l 367 1236 l 275 1072 z "},"â":{"ha":531,"x_min":56,"x_max":475,"o":"m 189 0 l 56 0 l 56 826 q 215 997 56 997 l 315 997 q 475 826 475 997 l 475 0 l 342 0 l 342 365 l 189 365 l 189 0 m 342 486 l 342 818 q 283 876 342 876 l 247 876 q 189 818 189 876 l 189 486 l 342 486 m 189 0 l 56 0 l 56 826 q 215 997 56 997 l 315 997 q 475 826 475 997 l 475 0 l 342 0 l 342 365 l 189 365 l 189 0 m 342 486 l 342 818 q 283 876 342 876 l 247 876 q 189 818 189 876 l 189 486 l 342 486 m 268 1153 l 210 1072 l 107 1072 l 226 1228 l 310 1228 l 429 1072 l 326 1072 l 268 1153 z "},"ã":{"ha":531,"x_min":56,"x_max":475,"o":"m 189 0 l 56 0 l 56 826 q 215 997 56 997 l 315 997 q 475 826 475 997 l 475 0 l 342 0 l 342 365 l 189 365 l 189 0 m 342 486 l 342 818 q 283 876 342 876 l 247 876 q 189 818 189 876 l 189 486 l 342 486 m 415 1190 q 382 1098 414 1129 q 308 1065 350 1067 q 281 1069 293 1065 q 258 1078 268 1074 q 238 1088 247 1083 q 218 1093 229 1093 q 185 1058 192 1093 l 117 1058 q 146 1147 117 1118 q 215 1179 175 1176 q 240 1175 229 1179 q 263 1165 251 1171 q 285 1156 274 1160 q 308 1151 296 1151 q 332 1163 322 1154 q 343 1190 342 1172 l 415 1190 z "},"ä":{"ha":531,"x_min":56,"x_max":475,"o":"m 189 0 l 56 0 l 56 826 q 215 997 56 997 l 315 997 q 475 826 475 997 l 475 0 l 342 0 l 342 365 l 189 365 l 189 0 m 342 486 l 342 818 q 283 876 342 876 l 247 876 q 189 818 189 876 l 189 486 l 342 486 m 219 1197 l 219 1058 l 108 1058 l 108 1197 l 219 1197 m 414 1197 l 414 1058 l 303 1058 l 303 1197 l 414 1197 z "},"å":{"ha":531,"x_min":56,"x_max":475,"o":"m 189 0 l 56 0 l 56 826 q 215 997 56 997 l 315 997 q 475 826 475 997 l 475 0 l 342 0 l 342 365 l 189 365 l 189 0 m 342 486 l 342 818 q 283 876 342 876 l 247 876 q 189 818 189 876 l 189 486 l 342 486 m 374 1129 q 344 1053 374 1083 q 269 1022 314 1022 q 196 1053 228 1022 q 164 1129 164 1083 q 196 1207 164 1176 q 269 1238 228 1238 q 344 1207 314 1238 q 374 1129 374 1176 m 317 1129 q 303 1164 317 1150 q 269 1178 289 1178 q 236 1164 250 1178 q 222 1129 222 1150 q 236 1094 222 1108 q 269 1081 250 1081 q 303 1094 289 1081 q 317 1129 317 1108 z "},"æ":{"ha":707,"x_min":56,"x_max":672,"o":"m 189 0 l 56 0 l 56 826 q 215 997 56 997 l 672 997 l 672 876 l 475 876 l 475 574 l 650 574 l 650 453 l 475 453 l 475 121 l 672 121 l 672 0 l 342 0 l 342 365 l 189 365 l 189 0 m 342 486 l 342 876 l 247 876 q 189 818 189 876 l 189 486 l 342 486 z "},"ç":{"ha":503,"x_min":56,"x_max":461,"o":"m 461 233 l 461 169 q 301 0 461 0 l 215 0 q 56 169 56 0 l 56 828 q 215 997 56 997 l 301 997 q 461 828 461 997 l 461 715 l 328 715 l 328 818 q 268 876 328 876 l 242 876 q 189 818 189 876 l 189 179 q 242 121 189 121 l 275 121 q 328 179 328 121 l 328 233 l 461 233 m 199 -190 l 263 -190 q 297 -157 297 -190 l 297 -137 q 263 -99 297 -99 l 207 -99 l 207 36 l 279 36 l 279 -43 l 292 -43 q 368 -124 368 -43 l 368 -176 q 290 -253 368 -251 l 199 -253 l 199 -190 z "},"è":{"ha":426,"x_min":63,"x_max":393,"o":"m 63 0 l 63 997 l 393 997 l 393 876 l 196 876 l 196 574 l 371 574 l 371 453 l 196 453 l 196 121 l 393 121 l 393 0 l 63 0 m 117 1208 l 239 1208 l 303 1044 l 208 1044 l 117 1208 z "},"é":{"ha":426,"x_min":63,"x_max":393,"o":"m 63 0 l 63 997 l 393 997 l 393 876 l 196 876 l 196 574 l 371 574 l 371 453 l 196 453 l 196 121 l 393 121 l 393 0 l 63 0 m 247 1072 l 153 1072 l 217 1236 l 339 1236 l 247 1072 z "},"ê":{"ha":426,"x_min":63,"x_max":393,"o":"m 63 0 l 63 997 l 393 997 l 393 876 l 196 876 l 196 574 l 371 574 l 371 453 l 196 453 l 196 121 l 393 121 l 393 0 l 63 0 m 225 1139 l 167 1058 l 64 1058 l 183 1214 l 267 1214 l 386 1058 l 283 1058 l 225 1139 z "},"ë":{"ha":426,"x_min":63,"x_max":393,"o":"m 63 0 l 63 997 l 393 997 l 393 876 l 196 876 l 196 574 l 371 574 l 371 453 l 196 453 l 196 121 l 393 121 l 393 0 l 63 0 m 190 1199 l 190 1060 l 79 1060 l 79 1199 l 190 1199 m 385 1199 l 385 1060 l 274 1060 l 274 1199 l 385 1199 z "},"ì":{"ha":258,"x_min":25,"x_max":211,"o":"m 63 0 l 63 997 l 196 997 l 196 0 l 63 0 m 25 1222 l 147 1222 l 211 1058 l 117 1058 l 25 1222 z "},"í":{"ha":258,"x_min":42,"x_max":228,"o":"m 63 0 l 63 997 l 196 997 l 196 0 l 63 0 m 136 1061 l 42 1061 l 106 1225 l 228 1225 l 136 1061 z "},"î":{"ha":258,"x_min":-37,"x_max":285,"o":"m 63 0 l 63 997 l 196 997 l 196 0 l 63 0 m 124 1143 l 65 1063 l -37 1063 l 82 1218 l 165 1218 l 285 1063 l 182 1063 l 124 1143 z "},"ï":{"ha":258,"x_min":-26,"x_max":279,"o":"m 63 0 l 63 997 l 196 997 l 196 0 l 63 0 m 85 1197 l 85 1058 l -26 1058 l -26 1197 l 85 1197 m 279 1197 l 279 1058 l 168 1058 l 168 1197 l 279 1197 z "},"ð":{"ha":538,"x_min":15,"x_max":482,"o":"m 63 0 l 63 997 l 294 997 q 482 806 482 997 l 482 144 q 322 0 482 0 l 63 0 m 196 121 l 296 121 q 349 165 349 121 l 349 804 q 289 876 349 876 l 196 876 l 196 121 m 16 424 l 16 535 l 291 535 l 291 424 l 16 424 z "},"ñ":{"ha":535,"x_min":63,"x_max":472,"o":"m 339 515 l 339 997 l 472 997 l 472 0 l 339 0 l 339 199 l 196 653 l 196 0 l 63 0 l 63 997 l 196 997 l 339 515 m 418 1190 q 385 1098 417 1129 q 311 1065 353 1067 q 283 1069 296 1065 q 260 1078 271 1074 q 241 1088 250 1083 q 221 1093 232 1093 q 188 1058 194 1093 l 119 1058 q 149 1147 119 1118 q 218 1179 178 1176 q 243 1175 232 1179 q 265 1165 254 1171 q 288 1156 276 1160 q 311 1151 299 1151 q 335 1163 325 1154 q 346 1190 344 1172 l 418 1190 z "},"ò":{"ha":558,"x_min":56,"x_max":503,"o":"m 217 0 q 56 169 56 0 l 56 826 q 215 997 56 997 l 343 997 q 503 826 503 997 l 503 169 q 342 0 503 0 l 217 0 m 249 121 l 317 121 q 369 179 369 121 l 369 818 q 310 876 369 876 l 247 876 q 189 818 189 876 l 189 179 q 249 121 189 121 m 157 1222 l 279 1222 l 343 1058 l 249 1058 l 157 1222 z "},"ó":{"ha":558,"x_min":56,"x_max":503,"o":"m 217 0 q 56 169 56 0 l 56 826 q 215 997 56 997 l 343 997 q 503 826 503 997 l 503 169 q 342 0 503 0 l 217 0 m 249 121 l 317 121 q 369 179 369 121 l 369 818 q 310 876 369 876 l 247 876 q 189 818 189 876 l 189 179 q 249 121 189 121 m 293 1058 l 199 1058 l 263 1222 l 385 1222 l 293 1058 z "},"ô":{"ha":558,"x_min":56,"x_max":503,"o":"m 217 0 q 56 169 56 0 l 56 826 q 215 997 56 997 l 343 997 q 503 826 503 997 l 503 169 q 342 0 503 0 l 217 0 m 249 121 l 317 121 q 369 179 369 121 l 369 818 q 310 876 369 876 l 247 876 q 189 818 189 876 l 189 179 q 249 121 189 121 m 275 1139 l 217 1058 l 114 1058 l 233 1214 l 317 1214 l 436 1058 l 333 1058 l 275 1139 z "},"õ":{"ha":558,"x_min":56,"x_max":503,"o":"m 217 0 q 56 169 56 0 l 56 826 q 215 997 56 997 l 343 997 q 503 826 503 997 l 503 169 q 342 0 503 0 l 217 0 m 249 121 l 317 121 q 369 179 369 121 l 369 818 q 310 876 369 876 l 247 876 q 189 818 189 876 l 189 179 q 249 121 189 121 m 422 1190 q 389 1098 421 1129 q 315 1065 357 1067 q 288 1069 300 1065 q 265 1078 275 1074 q 245 1088 254 1083 q 225 1093 236 1093 q 192 1058 199 1093 l 124 1058 q 153 1147 124 1118 q 222 1179 182 1176 q 247 1175 236 1179 q 269 1165 258 1171 q 292 1156 281 1160 q 315 1151 303 1151 q 339 1163 329 1154 q 350 1190 349 1172 l 422 1190 z "},"ö":{"ha":558,"x_min":56,"x_max":503,"o":"m 217 0 q 56 169 56 0 l 56 826 q 215 997 56 997 l 343 997 q 503 826 503 997 l 503 169 q 342 0 503 0 l 217 0 m 249 121 l 317 121 q 369 179 369 121 l 369 818 q 310 876 369 876 l 247 876 q 189 818 189 876 l 189 179 q 249 121 189 121 m 236 1197 l 236 1058 l 125 1058 l 125 1197 l 236 1197 m 431 1197 l 431 1058 l 319 1058 l 319 1197 l 431 1197 z "},"÷":{"ha":611,"x_min":35,"x_max":576,"o":"m 376 804 l 376 633 l 235 633 l 235 804 l 376 804 m 376 328 l 376 157 l 235 157 l 235 328 l 376 328 m 35 417 l 35 536 l 576 536 l 576 417 l 35 417 z "},"ø":{"ha":558,"x_min":56,"x_max":503,"o":"m 418 1081 l 401 990 q 503 826 503 963 l 503 169 q 342 0 503 0 l 217 0 l 215 0 l 200 -83 l 138 -83 l 154 7 q 56 169 56 36 l 56 826 q 215 997 56 997 l 340 997 l 356 1081 l 418 1081 m 369 821 l 238 121 l 317 121 q 369 179 369 121 l 369 821 m 189 189 l 317 876 l 247 876 q 189 818 189 876 l 189 189 z "},"ù":{"ha":558,"x_min":63,"x_max":496,"o":"m 496 997 l 496 189 q 335 0 496 0 l 222 0 q 63 190 63 0 l 63 997 l 196 997 l 196 186 q 254 121 196 121 l 308 121 q 363 186 363 121 l 363 997 l 496 997 m 136 1208 l 258 1208 l 322 1044 l 228 1044 l 136 1208 z "},"ú":{"ha":558,"x_min":63,"x_max":496,"o":"m 496 997 l 496 189 q 335 0 496 0 l 222 0 q 63 190 63 0 l 63 997 l 196 997 l 196 186 q 254 121 196 121 l 308 121 q 363 186 363 121 l 363 997 l 496 997 m 300 1044 l 206 1044 l 269 1208 l 392 1208 l 300 1044 z "},"û":{"ha":558,"x_min":63,"x_max":496,"o":"m 496 997 l 496 189 q 335 0 496 0 l 222 0 q 63 190 63 0 l 63 997 l 196 997 l 196 186 q 254 121 196 121 l 308 121 q 363 186 363 121 l 363 997 l 496 997 m 274 1139 l 215 1058 l 113 1058 l 232 1214 l 315 1214 l 435 1058 l 332 1058 l 274 1139 z "},"ü":{"ha":558,"x_min":63,"x_max":496,"o":"m 496 997 l 496 189 q 335 0 496 0 l 222 0 q 63 190 63 0 l 63 997 l 196 997 l 196 186 q 254 121 196 121 l 308 121 q 363 186 363 121 l 363 997 l 496 997 m 236 1197 l 236 1058 l 125 1058 l 125 1197 l 236 1197 m 431 1197 l 431 1058 l 319 1058 l 319 1197 l 431 1197 z "},"ý":{"ha":486,"x_min":14,"x_max":472,"o":"m 311 0 l 178 0 l 178 367 l 14 997 l 146 997 l 246 564 l 250 564 l 340 997 l 472 997 l 311 367 l 311 0 m 250 1044 l 156 1044 l 219 1208 l 342 1208 l 250 1044 z "},"þ":{"ha":524,"x_min":63,"x_max":482,"o":"m 194 831 l 324 831 q 482 660 482 831 l 482 481 q 321 313 482 313 l 196 313 l 196 0 l 63 0 l 63 997 l 194 997 l 194 831 m 196 433 l 296 433 q 349 492 349 433 l 349 651 q 289 710 349 710 l 196 710 l 196 433 z "},"ÿ":{"ha":486,"x_min":14,"x_max":472,"o":"m 311 0 l 178 0 l 178 367 l 14 997 l 146 997 l 246 564 l 250 564 l 340 997 l 472 997 l 311 367 l 311 0 m 201 1197 l 201 1058 l 90 1058 l 90 1197 l 201 1197 m 396 1197 l 396 1058 l 285 1058 l 285 1197 l 396 1197 z "},"ı":{"ha":258,"x_min":63,"x_max":196,"o":"m 63 0 l 63 997 l 196 997 l 196 0 l 63 0 z "},"Ł":{"ha":386,"x_min":18,"x_max":386,"o":"m 299 625 l 299 531 l 203 469 l 203 121 l 386 121 l 386 0 l 69 0 l 69 385 l 18 353 l 18 447 l 69 479 l 69 997 l 203 997 l 203 564 l 299 625 z "},"ˇ":{"ha":444,"x_min":61,"x_max":383,"o":"m 222 856 l 281 936 l 383 936 l 264 781 l 181 781 l 61 936 l 164 936 l 222 856 z "},"˘":{"ha":378,"x_min":50,"x_max":328,"o":"m 131 935 q 150 881 138 899 q 189 863 163 863 q 226 881 211 863 q 246 935 242 899 l 328 935 q 274 817 317 854 q 189 781 232 781 q 99 817 140 781 q 50 935 57 854 l 131 935 z "},"˙":{"ha":222,"x_min":39,"x_max":181,"o":"m 181 950 l 181 781 l 39 781 l 39 950 l 181 950 z "},"˚":{"ha":299,"x_min":47,"x_max":257,"o":"m 257 851 q 227 775 257 806 q 153 744 197 744 q 79 775 111 744 q 47 851 47 806 q 79 929 47 899 q 153 960 111 960 q 227 929 197 960 q 257 851 257 899 m 200 851 q 186 886 200 872 q 153 900 172 900 q 119 886 133 900 q 106 851 106 872 q 119 817 106 831 q 153 803 133 803 q 186 817 172 803 q 200 851 200 831 z "},"˛":{"ha":303,"x_min":50,"x_max":253,"o":"m 244 33 q 165 -44 186 -12 q 143 -108 143 -75 q 190 -154 143 -154 q 253 -133 218 -154 l 253 -229 q 171 -247 215 -247 q 85 -216 121 -247 q 50 -133 50 -185 q 53 -95 50 -114 q 69 -57 57 -76 q 103 -15 82 -37 q 161 33 125 8 l 244 33 z "},"˝":{"ha":472,"x_min":50,"x_max":422,"o":"m 422 964 l 303 964 l 225 781 l 313 781 l 422 964 m 246 964 l 126 964 l 50 781 l 138 781 l 246 964 z "},"⁄":{"ha":421,"x_min":0,"x_max":421,"o":"m 421 1081 l 321 1081 l 0 -83 l 99 -83 l 421 1081 z "},"−":{"ha":472,"x_min":56,"x_max":417,"o":"m 56 417 l 56 535 l 417 535 l 417 417 l 56 417 z "},"ł":{"ha":386,"x_min":18,"x_max":386,"o":"m 299 625 l 299 531 l 203 469 l 203 121 l 386 121 l 386 0 l 69 0 l 69 385 l 18 353 l 18 447 l 69 479 l 69 997 l 203 997 l 203 564 l 299 625 z "},"ﬁ":{"ha":658,"x_min":63,"x_max":596,"o":"m 463 0 l 463 876 l 196 876 l 196 574 l 371 574 l 371 453 l 196 453 l 196 0 l 63 0 l 63 997 l 463 997 l 596 997 l 596 0 l 463 0 z "},"ﬂ":{"ha":793,"x_min":63,"x_max":779,"o":"m 779 0 l 463 0 l 463 876 l 196 876 l 196 574 l 371 574 l 371 453 l 196 453 l 196 0 l 63 0 l 63 997 l 463 997 l 596 997 l 596 121 l 779 121 l 779 0 z "}}}
